# xmcd
# Track frame offsets:
# 150
# 17988
# 39123
# 61749
# 79189
# 100097
# 115067
# 134837
# 151662
# 170383
# 188113
# 199942
# 217417
# 243973
# 261975
#
# Disc length: 3754 seconds
# Revision: 0
# Processed by: cddbd v1.4PL0 Copyright (c) Steve Scherf et al.
# Submitted via: VisiTrax 2.9.5.181 - For more info visit www.synapsa.com
#
DISCID=ce0ea80f
DTITLE=Too Short - Married To the Game
DYEAR=2003
DGENRE=Hip Hop
TTITLE0=Chossin
TTITLE1=What She Gonna Do
TTITLE2=Thats How It Goes Down
TTITLE3=You Can't Fuck With Us
TTITLE4=Shake That Monkey
TTITLE5=Burn Rubber
TTITLE6=Hey, Lets Go
TTITLE7=Pimpandho.com
TTITLE8=Hobo Hoeing
TTITLE9=Get It
TTITLE10=Married to the Game
TTITLE11=Califorina Girls
TTITLE12=What's A Pimp
TTITLE13=Don't Act Like That
TTITLE14=Short Short
EXTD=
EXTT0=
EXTT1=
EXTT2=
EXTT3=
EXTT4=
EXTT5=
EXTT6=
EXTT7=
EXTT8=
EXTT9=
EXTT10=
EXTT11=
EXTT12=
EXTT13=
EXTT14=
PLAYORDER=
